<?xml version="1.0" encoding="utf-8"?>
<!-- Generator: Adobe Illustrator 18.0.0, SVG Export Plug-In . SVG Version: 6.00 Build 0)  -->
<!DOCTYPE svg PUBLIC "-//W3C//DTD SVG 1.1//EN" "http://www.w3.org/Graphics/SVG/1.1/DTD/svg11.dtd">
<svg viewBox="0 0 800 600" xmlns="http://www.w3.org/2000/svg">
  <!-- Background Elements -->
  <rect x="0" y="0" width="800" height="600" fill="#f8f9fa"/>
  
  <!-- Shopping Cart Icon -->
  <g transform="translate(300, 200)">
    <path d="M20 0H180L200 120H0L20 0Z" fill="#6c63ff"/>
    <circle cx="50" cy="150" r="15" fill="#333"/>
    <circle cx="150" cy="150" r="15" fill="#333"/>
  </g>

  <!-- Shopping Bags -->
  <g transform="translate(100, 250)">
    <path d="M0 0H80V100H0Z" fill="#ff6b6b"/>
    <path d="M20 -20C20 -40 60 -40 60 -20" stroke="#ff6b6b" stroke-width="5" fill="none"/>
  </g>

  <g transform="translate(600, 300)">
    <path d="M0 0H80V100H0Z" fill="#51cf66"/>
    <path d="M20 -20C20 -40 60 -40 60 -20" stroke="#51cf66" stroke-width="5" fill="none"/>
  </g>

  <!-- Delivery Box -->
  <g transform="translate(400, 400)">
    <rect x="0" y="0" width="120" height="80" fill="#ffd43b"/>
    <path d="M0 0L60 -30L180 -30L120 0Z" fill="#fab005"/>
    <path d="M120 0L180 -30V50L120 80Z" fill="#f08c00"/>
  </g>

  <!-- Shopping Elements -->
  <g transform="translate(200, 150)">
    <!-- Fruits -->
    <circle cx="0" cy="0" r="20" fill="#ff922b"/>
    <circle cx="50" cy="0" r="20" fill="#f06595"/>
    <circle cx="100" cy="0" r="20" fill="#94d82d"/>
  </g>

  <!-- Text Elements -->
  <g transform="translate(400, 100)">
    <text x="0" y="0" font-family="Arial" font-size="48" fill="#333" text-anchor="middle">
      Fresh Groceries
    </text>
    <text x="0" y="40" font-family="Arial" font-size="24" fill="#666" text-anchor="middle">
      Delivered to Your Door
    </text>
  </g>

  <!-- Decorative Elements -->
  <g transform="translate(50, 50)">
    <circle cx="0" cy="0" r="5" fill="#6c63ff"/>
    <circle cx="20" cy="0" r="5" fill="#6c63ff"/>
    <circle cx="40" cy="0" r="5" fill="#6c63ff"/>
  </g>

  <g transform="translate(700, 50)">
    <circle cx="0" cy="0" r="5" fill="#6c63ff"/>
    <circle cx="20" cy="0" r="5" fill="#6c63ff"/>
    <circle cx="40" cy="0" r="5" fill="#6c63ff"/>
  </g>
</svg>
