<?xml version="1.0" encoding="utf-8"?>
<svg viewBox="0 0 512 512" xmlns="http://www.w3.org/2000/svg">
    <!-- Background Gradient -->
    <defs>
        <linearGradient id="grad1" x1="0%" y1="0%" x2="100%" y2="100%">
            <stop offset="0%" style="stop-color:#ffc599;stop-opacity:1" />
            <stop offset="100%" style="stop-color:#ffe8dc;stop-opacity:0" />
        </linearGradient>
    </defs>
    
    <!-- Background Shape -->
    <path d="M420 100 Q512 200 420 300 Q350 380 250 400 Q100 420 50 300 Q0 200 100 100 Q200 0 420 100" 
          fill="url(#grad1)"/>
    
    <!-- People Icons -->
    <g transform="translate(100,150)">
        <!-- Central Person -->
        <circle cx="150" cy="100" r="40" fill="#ff6c6c"/>
        <path d="M110 150 L190 150 Q150 200 110 150" fill="#ff6c6c"/>
        
        <!-- Left Person -->
        <circle cx="70" cy="120" r="30" fill="#ff9d33"/>
        <path d="M40 160 L100 160 Q70 200 40 160" fill="#ff9d33"/>
        
        <!-- Right Person -->
        <circle cx="230" cy="120" r="30" fill="#ff9d33"/>
        <path d="M200 160 L260 160 Q230 200 200 160" fill="#ff9d33"/>
        
        <!-- Plus Symbol -->
        <g transform="translate(150,60)">
            <rect x="-20" y="-5" width="40" height="10" rx="5" fill="#6c6cff"/>
            <rect x="-5" y="-20" width="10" height="40" rx="5" fill="#6c6cff"/>
        </g>
    </g>
</svg>